<svg width="1080" height="1080" viewBox="0 0 1080 1080" fill="none" xmlns="http://www.w3.org/2000/svg">
<path d="M64.1994 613.065C64.1329 611.571 64.0083 610.076 64.0083 608.582C63.9995 450.096 64 291.61 64 133.125C64 131.641 64 130.158 64 128.282C65.6282 128.18 67.0591 128.013 68.4902 128.012C89.4883 127.995 110.487 128.101 131.484 127.905C135.206 127.87 137.03 129.307 138.833 132.317C152.52 155.169 166.418 177.894 180.177 200.703C190.665 218.09 200.993 235.574 211.488 252.957C225.342 275.903 239.314 298.777 253.188 321.711C259.824 332.681 266.35 343.717 273.283 355.319C281.27 342.147 288.973 329.506 296.615 316.828C310.704 293.457 324.743 270.055 338.829 246.682C350.986 226.51 363.196 206.369 375.353 186.196C386.42 167.831 397.432 149.432 408.516 131.077C409.685 129.142 410.996 127.88 413.894 127.885C501.72 128.027 589.545 128.002 677.371 128.008C678.023 128.008 678.675 128.087 679.661 128.151C679.661 152.613 679.661 177.005 679.661 201.884C614.312 201.884 548.921 201.884 483.266 201.884C483.266 227.094 483.266 251.819 483.266 276.855C537.718 276.855 591.99 276.855 646.631 276.855C646.631 300.552 646.631 323.945 646.631 347.827C592.37 347.827 537.979 347.827 483.294 347.827C483.294 374.37 483.294 400.429 483.294 426.744C569.444 426.744 655.499 426.744 741.859 426.744C741.859 327.276 741.859 228.007 741.859 128.369C768.886 128.369 795.612 128.369 822.67 128.369C822.67 252.293 822.67 376.345 822.67 500.699C682.65 500.699 542.599 500.699 402.237 500.699C402.237 428.382 402.237 356.117 402.237 283.852C401.964 283.748 401.691 283.645 401.419 283.542C365.415 342.6 329.412 401.658 293.235 461C281.034 461 268.54 461.119 256.054 460.853C254.436 460.818 252.294 459.14 251.354 457.628C243.643 445.214 236.191 432.639 228.599 420.151C216.11 399.606 203.582 379.085 191.057 358.562C178.446 337.898 165.824 317.241 153.195 296.588C150.748 292.584 148.249 288.612 144.992 283.366C144.992 378.798 144.992 472.945 144.522 567.542C119.534 574.069 97.8876 585.837 78.1666 601.362C73.3961 605.117 68.8491 609.157 64.1994 613.065Z" fill="#295C88"/>
<path d="M402.097 883.972C402.065 852.14 402.011 820.308 402.004 788.476C401.99 721.476 402 654.476 402 587.477C402 585.509 402 583.541 402 581.288C426.291 581.288 450.225 581.288 474.401 581.288C519.856 656.638 565.445 732.209 611.438 808.452C657.326 732.402 702.891 656.89 748.588 581.158C837.986 581.158 927.62 581.158 1017.63 581.158C1017.63 605.578 1017.63 629.968 1017.63 654.88C952.315 654.88 886.925 654.88 821.268 654.88C821.268 680.004 821.268 704.609 821.268 729.737C875.539 729.737 929.931 729.737 984.66 729.737C984.66 753.645 984.66 777.034 984.66 800.947C930.249 800.947 875.858 800.947 821.235 800.947C821.235 827.405 821.235 853.343 821.235 879.803C886.606 879.803 951.997 879.803 1017.69 879.803C1017.69 904.712 1017.69 929.101 1017.69 953.746C925.3 953.746 833.029 953.746 740.262 953.746C740.262 881.778 740.262 809.732 740.262 737.686C739.945 737.583 739.628 737.48 739.311 737.376C736.218 742.196 733.034 746.959 730.049 751.844C712.463 780.617 694.878 809.392 677.381 838.219C662.843 862.173 648.427 886.2 633.952 910.192C632.484 912.624 630.937 914.24 627.466 914.126C616.811 913.779 606.135 913.893 595.471 914.073C592.697 914.12 590.919 913.321 589.506 910.986C579.048 893.702 568.549 876.442 558.03 859.195C546.067 839.581 534.016 820.022 522.101 800.379C509.601 779.77 497.218 759.089 484.766 738.45C484.536 738.069 484.083 737.821 482.969 736.832C482.969 794.77 482.969 851.953 482.556 909.541C479.374 907.391 476.199 905.155 473.911 902.226C466.332 892.523 456.422 896.084 446.643 896.835C443.102 893.855 439.694 891.2 436.627 888.197C433.053 884.697 428.999 883.659 424.071 883.904C416.763 884.266 409.423 883.981 402.097 883.972Z" fill="#49AF50"/>
<path d="M401.622 883.981C409.423 883.981 416.763 884.266 424.071 883.904C428.999 883.659 433.053 884.697 436.627 888.197C439.694 891.2 443.102 893.855 446.766 897.161C455.607 904.634 464.043 911.609 473.04 919.048C464.183 926.43 456.038 933.122 448.007 939.948C442.649 944.502 437.454 949.249 432.186 953.909C430.521 953.939 428.856 953.996 427.19 953.996C308.231 954 189.271 953.97 70.3122 954.105C65.4104 954.111 63.7691 953.124 63.8611 947.858C64.2072 928.038 64.0497 908.207 63.9495 888.381C63.9333 885.186 64.5157 882.955 67.4255 880.886C87.143 866.866 106.674 852.584 126.282 838.41C153.678 818.607 181.226 799.012 208.422 778.939C218.664 771.38 228.732 763.37 237.756 754.432C249.679 742.624 258.685 728.681 261.611 711.642C263.978 697.854 263.15 684.663 254.508 672.794C247.753 663.517 238.216 658.469 227.557 656.257C207.437 652.081 187.179 652.152 167.859 660.054C153.27 666.022 138.912 672.783 127.429 684.111C122.352 689.12 122.47 689.185 116.252 685.131C99.7101 674.345 83.1347 663.61 66.626 652.774C65.5399 652.061 64.9016 650.666 64.3983 649.156C71.9728 640.484 78.7208 631.749 86.5464 624.12C98.9278 612.049 113.628 603.245 129.618 596.629C134.82 594.477 139.973 592.204 145.148 589.986C154.509 587.92 163.803 585.44 173.251 583.908C182.366 582.43 191.623 581.436 200.849 581.102C220.779 580.38 240.62 581.146 260.166 585.936C294.127 594.259 322.488 610.581 339.877 642.1C345.732 652.713 348.787 664.419 350.145 676.668C353.007 702.5 348.773 726.937 336.937 749.964C329.699 764.046 320.497 776.917 309.271 788.086C295.759 801.53 281.992 814.746 267.836 827.507C250.602 843.041 232.832 857.979 215.33 873.217C211.646 876.425 208.118 879.813 203.569 883.99C270.312 883.99 335.729 883.99 401.622 883.981Z" fill="#EAEAEA"/>
<path d="M145.071 589.524C139.973 592.204 134.82 594.477 129.618 596.629C113.628 603.245 98.9279 612.049 86.5465 624.12C78.7208 631.75 71.9729 640.484 64.409 648.779C64.0649 637.216 64.0533 625.598 64.1205 613.522C68.8491 609.157 73.3961 605.117 78.1666 601.362C97.8875 585.837 119.534 574.069 144.444 568.007C144.89 575.034 144.942 582.048 145.071 589.524Z" fill="#1A3C55"/>
<path d="M432.642 953.936C437.454 949.249 442.649 944.502 448.007 939.948C456.038 933.122 464.183 926.43 473.04 919.048C464.043 911.609 455.607 904.634 447.049 897.332C456.422 896.084 466.332 892.523 473.911 902.226C476.199 905.155 479.374 907.391 482.472 910.007C482.801 924.502 482.801 938.935 482.801 953.964C466.194 953.964 449.646 953.964 432.642 953.936Z" fill="#357B36"/>
</svg>
